<svg width="20" height="20" viewBox="0 0 20 20" fill="none" xmlns="http://www.w3.org/2000/svg">
<path fill-rule="evenodd" clip-rule="evenodd" d="M11 9.89998V17H9V9.89998C6.71776 9.43671 5 7.41896 5 5C5 2.23858 7.23858 0 10 0C12.7614 0 15 2.23858 15 5C15 7.41896 13.2822 9.43671 11 9.89998ZM7 12.1573V14.1844C4.06718 14.5505 2 15.3867 2 16C2 16.807 5.57914 18 10 18C14.4209 18 18 16.807 18 16C18 15.3867 15.9328 14.5505 13 14.1844V12.1573C17.0559 12.6017 20 13.9678 20 16C20 18.5068 15.5203 20 10 20C4.47973 20 0 18.5068 0 16C0 13.9678 2.94412 12.6017 7 12.1573ZM13 5C13 6.65685 11.6569 8 10 8C8.34315 8 7 6.65685 7 5C7 3.34315 8.34315 2 10 2C11.6569 2 13 3.34315 13 5Z" fill="black"/>
</svg>
